<?xml version="1.0" encoding="UTF-8" standalone="no"?>
<svg width="50px" height="37px" viewBox="0 0 50 37" version="1.1" xmlns="http://www.w3.org/2000/svg" xmlns:xlink="http://www.w3.org/1999/xlink">
    <!-- Generator: Sketch 40.3 (33839) - http://www.bohemiancoding.com/sketch -->
    <title>Group 12</title>
    <desc>Created with Sketch.</desc>
    <defs></defs>
    <g id="Page-1" stroke="none" stroke-width="1" fill="none" fill-rule="evenodd">
        <g id="7" transform="translate(-654.000000, -486.000000)" fill="#FFFFFF">
            <g id="Group-2" transform="translate(0.000000, 290.000000)">
                <g id="Group-12" transform="translate(654.000000, 196.000000)">
                    <g id="Page-1-Copy">
                        <g id="Group-3" transform="translate(0.000000, 0.051234)">
                            <path d="M36.7849584,23.7865604 C36.2011165,25.1647506 35.3655409,26.4021861 34.3014632,27.4645266 C33.2373856,28.526867 31.9979265,29.3610092 30.6174827,29.9439672 C29.1875936,30.5477648 27.6694244,30.8539216 26.1052774,30.8539216 C24.541061,30.8539216 23.0229612,30.5477648 21.5930721,29.9439672 C20.2126283,29.3610092 18.9731692,28.526867 17.9090915,27.4645266 C16.8450139,26.4021861 16.0094383,25.1647506 15.4255964,23.7865604 C14.820742,22.3590058 14.5140846,20.8433152 14.5140846,19.2817218 C14.5140846,17.7200591 14.820742,16.2044377 15.4255964,14.7768138 C16.0094383,13.398693 16.8450139,12.1612574 17.9090915,11.0989169 C18.9731692,10.0365765 20.2126283,9.20236503 21.5930721,8.61947632 C23.0229612,8.01560944 24.541061,7.70945266 26.1052774,7.70945266 C27.6694244,7.70945266 29.1875936,8.01560944 30.6174827,8.61947632 C31.9979265,9.20236503 33.2373856,10.0365765 34.3014632,11.0989169 C35.3655409,12.1612574 36.2011165,13.398693 36.7849584,14.7768138 C37.3897434,16.2044377 37.6964008,17.7200591 37.6964008,19.2817218 C37.6964008,20.8433152 37.3897434,22.3590058 36.7849584,23.7865604 M45.4004924,4.55060988 L36.3203953,4.55060988 L34.0503537,0.0180080002 L18.1602011,0.0180080002 L15.8901595,4.55060988 L4.5400208,4.55060988 C4.5400208,4.55060988 6.93481291e-06,4.55060988 6.93481291e-06,9.08328099 L6.93481291e-06,31.7464288 C6.93481291e-06,36.2791 4.5400208,36.2791 4.5400208,36.2791 L45.4004924,36.2791 C45.4004924,36.2791 49.9405062,36.2791 49.9405062,31.7464288 L49.9405062,9.08328099 C49.9405062,4.55060988 45.4004924,4.55060988 45.4004924,4.55060988" id="Fill-1"></path>
                        </g>
                        <path d="M26.1052635,25.8912532 C22.4830721,25.8912532 19.5361928,22.949185 19.5361928,19.3329764 C19.5361928,15.7166985 22.4830721,12.7746302 26.1052635,12.7746302 C29.7274549,12.7746302 32.6743343,15.7166985 32.6743343,19.3329764 C32.6743343,22.949185 29.7274549,25.8912532 26.1052635,25.8912532 M26.1052635,11.4008019 C21.7173301,11.4008019 18.1601872,14.9521374 18.1601872,19.3329764 C18.1601872,23.7137461 21.7173301,27.2650816 26.1052635,27.2650816 C30.4931969,27.2650816 34.0503398,23.7137461 34.0503398,19.3329764 C34.0503398,14.9521374 30.4931969,11.4008019 26.1052635,11.4008019" id="Fill-4"></path>
                    </g>
                </g>
            </g>
        </g>
    </g>
</svg>