<?xml version="1.0" encoding="iso-8859-1"?>
<!-- Uploaded to: SVG Repo, www.svgrepo.com, Generator: SVG Repo Mixer Tools -->
<!DOCTYPE svg PUBLIC "-//W3C//DTD SVG 1.1//EN" "http://www.w3.org/Graphics/SVG/1.1/DTD/svg11.dtd">
<svg fill="#000000" version="1.1" id="Capa_1" xmlns="http://www.w3.org/2000/svg" xmlns:xlink="http://www.w3.org/1999/xlink" 
	 width="800px" height="800px" viewBox="0 0 98.492 98.492"
	 xml:space="preserve">
<g>
	<path d="M80.373,98.492H18.119c-3.514,0-6.373-2.859-6.373-6.373V6.373C11.746,2.859,14.605,0,18.119,0h62.254
		c3.514,0,6.373,2.859,6.373,6.373v85.746C86.746,95.633,83.887,98.492,80.373,98.492z M18.119,1c-2.963,0-5.373,2.41-5.373,5.373
		v85.746c0,2.963,2.41,5.373,5.373,5.373h62.254c2.963,0,5.373-2.41,5.373-5.373V6.373C85.746,3.41,83.336,1,80.373,1H18.119z
		 M49.246,95.262c-1.247,0-2.262-1.015-2.262-2.262s1.015-2.262,2.262-2.262s2.262,1.015,2.262,2.262S50.493,95.262,49.246,95.262z
		 M49.246,91.738c-0.696,0-1.262,0.566-1.262,1.262c0,0.696,0.566,1.262,1.262,1.262c0.695,0,1.262-0.565,1.262-1.262
		C50.508,92.305,49.941,91.738,49.246,91.738z M82.048,89.829H16.444V8.663h65.604V89.829z M17.444,88.829h63.604V9.663H17.444
		V88.829z M49.246,6.139c-0.761,0-1.381-0.619-1.381-1.381c0-0.762,0.62-1.381,1.381-1.381c0.762,0,1.381,0.619,1.381,1.381
		C50.627,5.52,50.008,6.139,49.246,6.139z M49.246,4.377c-0.21,0-0.381,0.171-0.381,0.381c0,0.21,0.171,0.381,0.381,0.381
		s0.381-0.171,0.381-0.381C49.627,4.548,49.456,4.377,49.246,4.377z"/>
</g>
</svg>